<svg width="512" height="512" viewBox="0 0 512 512" fill="none" xmlns="http://www.w3.org/2000/svg">
<path d="M255.816 485.633C381.668 485.633 485.811 381.668 485.811 255.816C485.811 129.965 381.491 26 255.64 26C129.965 26 26 129.965 26 255.816C26 381.668 130.141 485.633 255.816 485.633Z" fill="white"/>
<path fill-rule="evenodd" clip-rule="evenodd" d="M485.811 255.816C485.811 381.668 381.668 485.633 255.816 485.633C130.141 485.633 26 381.668 26 255.816C26 129.965 129.965 26 255.64 26C381.491 26 485.811 129.965 485.811 255.816ZM59.0076 255.816C59.0076 364.9 146.733 452.802 255.816 452.802C365.076 452.802 452.98 364.9 452.803 255.816C452.626 146.733 364.899 58.8308 255.64 58.8308C146.557 58.8308 59.0076 146.733 59.0076 255.816Z" fill="black"/>
<path d="M231.387 365.267C237.918 365.267 243.214 362.266 247.273 356.088L363.416 174.283C365.888 170.576 368.007 166.163 368.007 161.75C368.007 152.749 360.065 147.1 351.942 147.1C346.648 147.1 341.706 150.101 338.176 156.102L230.681 326.611L173.492 255.124C169.079 249.3 164.49 247.181 159.018 247.181C150.546 247.181 143.485 253.889 143.485 262.891C143.485 267.304 145.25 271.716 148.251 275.423L214.795 356.265C220.091 362.619 225.033 365.267 231.387 365.267Z" fill="black"/>
</svg>
