<?xml version="1.0" encoding="UTF-8"?>
<!--Generator: Apple Native CoreSVG 123-->
<!DOCTYPE svg
PUBLIC "-//W3C//DTD SVG 1.1//EN"
       "http://www.w3.org/Graphics/SVG/1.1/DTD/svg11.dtd">
<svg version="1.1" xmlns="http://www.w3.org/2000/svg" xmlns:xlink="http://www.w3.org/1999/xlink" width="3300" height="2200">
 <!--glyph: "uni10005C.medium", point size: 100.000000, font version: "Version 15.0d7e11", template writer version: "5"-->
 <g id="Notes">
  <rect height="2200" id="artboard" style="fill:white;opacity:1" width="3300" x="0" y="0"/>
  <line id="" style="fill:none;stroke:black;opacity:1;stroke-width:0.5;" x1="263" x2="3036" y1="292" y2="292"/>
  <text style="stroke:none;fill:black;font-family:-apple-system,&quot;SF Pro Display&quot;,&quot;SF Pro Text&quot;,Helvetica,sans-serif;font-weight:bold;" transform="matrix(1 0 0 1 263 322)">Weight/Scale Variations</text>
  <text style="stroke:none;fill:black;font-family:-apple-system,&quot;SF Pro Display&quot;,&quot;SF Pro Text&quot;,Helvetica,sans-serif;text-anchor:middle;" transform="matrix(1 0 0 1 559.711 322)">Ultralight</text>
  <text style="stroke:none;fill:black;font-family:-apple-system,&quot;SF Pro Display&quot;,&quot;SF Pro Text&quot;,Helvetica,sans-serif;text-anchor:middle;" transform="matrix(1 0 0 1 856.422 322)">Thin</text>
  <text style="stroke:none;fill:black;font-family:-apple-system,&quot;SF Pro Display&quot;,&quot;SF Pro Text&quot;,Helvetica,sans-serif;text-anchor:middle;" transform="matrix(1 0 0 1 1153.13 322)">Light</text>
  <text style="stroke:none;fill:black;font-family:-apple-system,&quot;SF Pro Display&quot;,&quot;SF Pro Text&quot;,Helvetica,sans-serif;text-anchor:middle;" transform="matrix(1 0 0 1 1449.84 322)">Regular</text>
  <text style="stroke:none;fill:black;font-family:-apple-system,&quot;SF Pro Display&quot;,&quot;SF Pro Text&quot;,Helvetica,sans-serif;text-anchor:middle;" transform="matrix(1 0 0 1 1746.56 322)">Medium</text>
  <text style="stroke:none;fill:black;font-family:-apple-system,&quot;SF Pro Display&quot;,&quot;SF Pro Text&quot;,Helvetica,sans-serif;text-anchor:middle;" transform="matrix(1 0 0 1 2043.27 322)">Semibold</text>
  <text style="stroke:none;fill:black;font-family:-apple-system,&quot;SF Pro Display&quot;,&quot;SF Pro Text&quot;,Helvetica,sans-serif;text-anchor:middle;" transform="matrix(1 0 0 1 2339.98 322)">Bold</text>
  <text style="stroke:none;fill:black;font-family:-apple-system,&quot;SF Pro Display&quot;,&quot;SF Pro Text&quot;,Helvetica,sans-serif;text-anchor:middle;" transform="matrix(1 0 0 1 2636.69 322)">Heavy</text>
  <text style="stroke:none;fill:black;font-family:-apple-system,&quot;SF Pro Display&quot;,&quot;SF Pro Text&quot;,Helvetica,sans-serif;text-anchor:middle;" transform="matrix(1 0 0 1 2933.4 322)">Black</text>
  <line id="" style="fill:none;stroke:black;opacity:1;stroke-width:0.5;" x1="263" x2="3036" y1="1903" y2="1903"/>
  <g id="" transform="matrix(1 0 0 1 263 1933)">
   <path d="M 9.24805 0.830078 C 13.5547 0.830078 17.1387 -2.74414 17.1387 -7.05078 C 17.1387 -11.3574 13.5449 -14.9316 9.23828 -14.9316 C 4.94141 -14.9316 1.36719 -11.3574 1.36719 -7.05078 C 1.36719 -2.74414 4.95117 0.830078 9.24805 0.830078 Z M 9.24805 -0.654297 C 5.70312 -0.654297 2.87109 -3.49609 2.87109 -7.05078 C 2.87109 -10.6055 5.69336 -13.4473 9.23828 -13.4473 C 12.793 -13.4473 15.6348 -10.6055 15.6445 -7.05078 C 15.6543 -3.49609 12.8027 -0.654297 9.24805 -0.654297 Z M 9.22852 -3.42773 C 9.69727 -3.42773 9.9707 -3.74023 9.9707 -4.25781 L 9.9707 -6.31836 L 12.1973 -6.31836 C 12.6953 -6.31836 13.0371 -6.57227 13.0371 -7.04102 C 13.0371 -7.51953 12.7148 -7.7832 12.1973 -7.7832 L 9.9707 -7.7832 L 9.9707 -10.0098 C 9.9707 -10.5273 9.69727 -10.8496 9.22852 -10.8496 C 8.75977 -10.8496 8.50586 -10.5078 8.50586 -10.0098 L 8.50586 -7.7832 L 6.29883 -7.7832 C 5.78125 -7.7832 5.44922 -7.51953 5.44922 -7.04102 C 5.44922 -6.57227 5.80078 -6.31836 6.29883 -6.31836 L 8.50586 -6.31836 L 8.50586 -4.25781 C 8.50586 -3.75977 8.75977 -3.42773 9.22852 -3.42773 Z"/>
  </g>
  <g id="" transform="matrix(1 0 0 1 281.506 1933)">
   <path d="M 11.709 2.91016 C 17.1582 2.91016 21.6699 -1.60156 21.6699 -7.05078 C 21.6699 -12.4902 17.1484 -17.0117 11.6992 -17.0117 C 6.25977 -17.0117 1.74805 -12.4902 1.74805 -7.05078 C 1.74805 -1.60156 6.26953 2.91016 11.709 2.91016 Z M 11.709 1.25 C 7.09961 1.25 3.41797 -2.44141 3.41797 -7.05078 C 3.41797 -11.6504 7.08984 -15.3516 11.6992 -15.3516 C 16.3086 -15.3516 20 -11.6504 20.0098 -7.05078 C 20.0195 -2.44141 16.3184 1.25 11.709 1.25 Z M 11.6895 -2.41211 C 12.207 -2.41211 12.5195 -2.77344 12.5195 -3.33984 L 12.5195 -6.23047 L 15.5762 -6.23047 C 16.123 -6.23047 16.5039 -6.51367 16.5039 -7.03125 C 16.5039 -7.55859 16.1426 -7.86133 15.5762 -7.86133 L 12.5195 -7.86133 L 12.5195 -10.9277 C 12.5195 -11.5039 12.207 -11.8555 11.6895 -11.8555 C 11.1719 -11.8555 10.8789 -11.4844 10.8789 -10.9277 L 10.8789 -7.86133 L 7.83203 -7.86133 C 7.26562 -7.86133 6.89453 -7.55859 6.89453 -7.03125 C 6.89453 -6.51367 7.28516 -6.23047 7.83203 -6.23047 L 10.8789 -6.23047 L 10.8789 -3.33984 C 10.8789 -2.79297 11.1719 -2.41211 11.6895 -2.41211 Z"/>
  </g>
  <g id="" transform="matrix(1 0 0 1 304.924 1933)">
   <path d="M 14.9707 5.67383 C 21.9336 5.67383 27.6953 -0.078125 27.6953 -7.04102 C 27.6953 -14.0039 21.9238 -19.7559 14.9609 -19.7559 C 8.00781 -19.7559 2.25586 -14.0039 2.25586 -7.04102 C 2.25586 -0.078125 8.01758 5.67383 14.9707 5.67383 Z M 14.9707 3.85742 C 8.93555 3.85742 4.08203 -1.00586 4.08203 -7.04102 C 4.08203 -13.0762 8.92578 -17.9395 14.9609 -17.9395 C 21.0059 -17.9395 25.8594 -13.0762 25.8691 -7.04102 C 25.8789 -1.00586 21.0156 3.85742 14.9707 3.85742 Z M 14.9512 -1.06445 C 15.5176 -1.06445 15.8691 -1.45508 15.8691 -2.06055 L 15.8691 -6.13281 L 20.1074 -6.13281 C 20.6934 -6.13281 21.1133 -6.46484 21.1133 -7.02148 C 21.1133 -7.59766 20.7227 -7.93945 20.1074 -7.93945 L 15.8691 -7.93945 L 15.8691 -12.1875 C 15.8691 -12.8027 15.5176 -13.1934 14.9512 -13.1934 C 14.3848 -13.1934 14.0625 -12.7832 14.0625 -12.1875 L 14.0625 -7.93945 L 9.83398 -7.93945 C 9.21875 -7.93945 8.80859 -7.59766 8.80859 -7.02148 C 8.80859 -6.46484 9.23828 -6.13281 9.83398 -6.13281 L 14.0625 -6.13281 L 14.0625 -2.06055 C 14.0625 -1.47461 14.3848 -1.06445 14.9512 -1.06445 Z"/>
  </g>
  <text style="stroke:none;fill:black;font-family:-apple-system,&quot;SF Pro Display&quot;,&quot;SF Pro Text&quot;,Helvetica,sans-serif;font-weight:bold;" transform="matrix(1 0 0 1 263 1953)">Design Variations</text>
  <text style="stroke:none;fill:black;font-family:-apple-system,&quot;SF Pro Display&quot;,&quot;SF Pro Text&quot;,Helvetica,sans-serif;" transform="matrix(1 0 0 1 263 1971)">Symbols are supported in up to nine weights and three scales.</text>
  <text style="stroke:none;fill:black;font-family:-apple-system,&quot;SF Pro Display&quot;,&quot;SF Pro Text&quot;,Helvetica,sans-serif;" transform="matrix(1 0 0 1 263 1989)">For optimal layout with text and other symbols, vertically align</text>
  <text style="stroke:none;fill:black;font-family:-apple-system,&quot;SF Pro Display&quot;,&quot;SF Pro Text&quot;,Helvetica,sans-serif;" transform="matrix(1 0 0 1 263 2007)">symbols with the adjacent text.</text>
  <rect height="14" id="" style="fill:#00AEEF;stroke:none;opacity:0.4;" width="3" x="776" y="1919"/>
  <g id="" transform="matrix(1 0 0 1 779 1933)">
   <path d="M 10.5273 0 L 12.373 0 L 7.17773 -14.0918 L 5.43945 -14.0918 L 0.244141 0 L 2.08984 0 L 3.50586 -4.0332 L 9.11133 -4.0332 Z M 6.2793 -11.9531 L 6.33789 -11.9531 L 8.59375 -5.52734 L 4.02344 -5.52734 Z"/>
  </g>
  <rect height="14" id="" style="fill:#00AEEF;stroke:none;opacity:0.4;" width="3" x="791.617" y="1919"/>
  <text style="stroke:none;fill:black;font-family:-apple-system,&quot;SF Pro Display&quot;,&quot;SF Pro Text&quot;,Helvetica,sans-serif;font-weight:bold;" transform="matrix(1 0 0 1 776 1953)">Margins</text>
  <text style="stroke:none;fill:black;font-family:-apple-system,&quot;SF Pro Display&quot;,&quot;SF Pro Text&quot;,Helvetica,sans-serif;" transform="matrix(1 0 0 1 776 1971)">Leading and trailing margins on the left and right side of each symbol</text>
  <text style="stroke:none;fill:black;font-family:-apple-system,&quot;SF Pro Display&quot;,&quot;SF Pro Text&quot;,Helvetica,sans-serif;" transform="matrix(1 0 0 1 776 1989)">can be adjusted by modifying the width of the blue rectangles.</text>
  <text style="stroke:none;fill:black;font-family:-apple-system,&quot;SF Pro Display&quot;,&quot;SF Pro Text&quot;,Helvetica,sans-serif;" transform="matrix(1 0 0 1 776 2007)">Modifications are automatically applied proportionally to all</text>
  <text style="stroke:none;fill:black;font-family:-apple-system,&quot;SF Pro Display&quot;,&quot;SF Pro Text&quot;,Helvetica,sans-serif;" transform="matrix(1 0 0 1 776 2025)">scales and weights.</text>
  <g id="" transform="matrix(1 0 0 1 1289 1933)">
   <path d="M 2.83203 3.11523 L 4.375 4.6582 C 5.22461 5.48828 6.19141 5.41992 7.06055 4.46289 L 17.2754 -6.66016 C 17.7051 -6.36719 18.0957 -6.37695 18.5645 -6.47461 L 19.6094 -6.68945 L 20.3027 -5.99609 L 20.2539 -5.47852 C 20.1855 -4.95117 20.3516 -4.53125 20.8496 -4.0332 L 21.6602 -3.22266 C 22.168 -2.71484 22.8223 -2.68555 23.3008 -3.16406 L 26.5527 -6.41602 C 27.0312 -6.89453 27.0117 -7.54883 26.5039 -8.05664 L 25.6836 -8.87695 C 25.1855 -9.375 24.7754 -9.55078 24.2383 -9.47266 L 23.7109 -9.41406 L 23.0566 -10.0781 L 23.3398 -11.2207 C 23.4863 -11.7871 23.3398 -12.2559 22.7148 -12.8613 L 20.3027 -15.2539 C 16.7578 -18.7793 12.2266 -18.6719 9.11133 -15.5371 C 8.69141 -15.1074 8.64258 -14.5215 8.91602 -14.0918 C 9.15039 -13.7207 9.62891 -13.4961 10.2734 -13.6621 C 11.7871 -14.043 13.3008 -13.9258 14.7852 -12.9199 L 14.1602 -11.3379 C 13.9258 -10.752 13.9453 -10.2734 14.1797 -9.83398 L 3.01758 0.439453 C 2.08008 1.30859 1.97266 2.25586 2.83203 3.11523 Z M 10.6738 -15.1465 C 13.3398 -17.1387 16.6504 -16.8262 19.0527 -14.4141 L 21.6797 -11.8066 C 21.9141 -11.5723 21.9434 -11.3867 21.8848 -11.0938 L 21.5039 -9.53125 L 23.0762 -7.95898 L 24.043 -8.04688 C 24.3262 -8.07617 24.4141 -8.05664 24.6387 -7.83203 L 25.2637 -7.20703 L 22.5098 -4.46289 L 21.8848 -5.07812 C 21.6602 -5.30273 21.6406 -5.40039 21.6699 -5.68359 L 21.7578 -6.64062 L 20.1953 -8.20312 L 18.5742 -7.89062 C 18.291 -7.83203 18.1445 -7.83203 17.9102 -8.07617 L 15.7324 -10.2539 C 15.5078 -10.4883 15.4785 -10.625 15.6055 -10.9473 L 16.5527 -13.2227 C 14.9512 -14.7559 12.8418 -15.6055 10.8008 -14.9512 C 10.7129 -14.9219 10.6445 -14.9414 10.6152 -14.9805 C 10.5859 -15.0293 10.5859 -15.0781 10.6738 -15.1465 Z M 4.10156 2.41211 C 3.61328 1.91406 3.78906 1.61133 4.12109 1.30859 L 15.0781 -8.80859 L 16.3086 -7.57812 L 6.15234 3.34961 C 5.84961 3.68164 5.46875 3.7793 5.06836 3.37891 Z"/>
  </g>
  <text style="stroke:none;fill:black;font-family:-apple-system,&quot;SF Pro Display&quot;,&quot;SF Pro Text&quot;,Helvetica,sans-serif;font-weight:bold;" transform="matrix(1 0 0 1 1289 1953)">Exporting</text>
  <text style="stroke:none;fill:black;font-family:-apple-system,&quot;SF Pro Display&quot;,&quot;SF Pro Text&quot;,Helvetica,sans-serif;" transform="matrix(1 0 0 1 1289 1971)">Symbols should be outlined when exporting to ensure the</text>
  <text style="stroke:none;fill:black;font-family:-apple-system,&quot;SF Pro Display&quot;,&quot;SF Pro Text&quot;,Helvetica,sans-serif;" transform="matrix(1 0 0 1 1289 1989)">design is preserved when submitting to Xcode.</text>
  <text id="template-version" style="stroke:none;fill:black;font-family:-apple-system,&quot;SF Pro Display&quot;,&quot;SF Pro Text&quot;,Helvetica,sans-serif;text-anchor:end;" transform="matrix(1 0 0 1 3036 1933)">Template v.1.0</text>
  <text style="stroke:none;fill:black;font-family:-apple-system,&quot;SF Pro Display&quot;,&quot;SF Pro Text&quot;,Helvetica,sans-serif;text-anchor:end;" transform="matrix(1 0 0 1 3036 1951)">Generated from questionmark.circle</text>
  <text style="stroke:none;fill:black;font-family:-apple-system,&quot;SF Pro Display&quot;,&quot;SF Pro Text&quot;,Helvetica,sans-serif;text-anchor:end;" transform="matrix(1 0 0 1 3036 1969)">Typeset at 100 points</text>
  <text style="stroke:none;fill:black;font-family:-apple-system,&quot;SF Pro Display&quot;,&quot;SF Pro Text&quot;,Helvetica,sans-serif;" transform="matrix(1 0 0 1 263 726)">Small</text>
  <text style="stroke:none;fill:black;font-family:-apple-system,&quot;SF Pro Display&quot;,&quot;SF Pro Text&quot;,Helvetica,sans-serif;" transform="matrix(1 0 0 1 263 1156)">Medium</text>
  <text style="stroke:none;fill:black;font-family:-apple-system,&quot;SF Pro Display&quot;,&quot;SF Pro Text&quot;,Helvetica,sans-serif;" transform="matrix(1 0 0 1 263 1586)">Large</text>
 </g>
 <g id="Guides">
  <g id="H-reference" style="fill:#27AAE1;stroke:none;" transform="matrix(1 0 0 1 339 696)">
   <path d="M 54.9316 0 L 57.666 0 L 30.5664 -70.459 L 28.0762 -70.459 L 0.976562 0 L 3.66211 0 L 12.9395 -24.4629 L 45.7031 -24.4629 Z M 29.1992 -67.0898 L 29.4434 -67.0898 L 44.8242 -26.709 L 13.8184 -26.709 Z"/>
  </g>
  <line id="Baseline-S" style="fill:none;stroke:#27AAE1;opacity:1;stroke-width:0.577;" x1="263" x2="3036" y1="696" y2="696"/>
  <line id="Capline-S" style="fill:none;stroke:#27AAE1;opacity:1;stroke-width:0.577;" x1="263" x2="3036" y1="625.541" y2="625.541"/>
  <g id="H-reference" style="fill:#27AAE1;stroke:none;" transform="matrix(1 0 0 1 339 1126)">
   <path d="M 54.9316 0 L 57.666 0 L 30.5664 -70.459 L 28.0762 -70.459 L 0.976562 0 L 3.66211 0 L 12.9395 -24.4629 L 45.7031 -24.4629 Z M 29.1992 -67.0898 L 29.4434 -67.0898 L 44.8242 -26.709 L 13.8184 -26.709 Z"/>
  </g>
  <line id="Baseline-M" style="fill:none;stroke:#27AAE1;opacity:1;stroke-width:0.577;" x1="263" x2="3036" y1="1126" y2="1126"/>
  <line id="Capline-M" style="fill:none;stroke:#27AAE1;opacity:1;stroke-width:0.577;" x1="263" x2="3036" y1="1055.54" y2="1055.54"/>
  <g id="H-reference" style="fill:#27AAE1;stroke:none;" transform="matrix(1 0 0 1 339 1556)">
   <path d="M 54.9316 0 L 57.666 0 L 30.5664 -70.459 L 28.0762 -70.459 L 0.976562 0 L 3.66211 0 L 12.9395 -24.4629 L 45.7031 -24.4629 Z M 29.1992 -67.0898 L 29.4434 -67.0898 L 44.8242 -26.709 L 13.8184 -26.709 Z"/>
  </g>
  <line id="Baseline-L" style="fill:none;stroke:#27AAE1;opacity:1;stroke-width:0.577;" x1="263" x2="3036" y1="1556" y2="1556"/>
  <line id="Capline-L" style="fill:none;stroke:#27AAE1;opacity:1;stroke-width:0.577;" x1="263" x2="3036" y1="1485.54" y2="1485.54"/>
  <rect height="119.336" id="left-margin" style="fill:#00AEEF;stroke:none;opacity:0.4;" width="8.74023" x="1391.3" y="1030.79"/>
  <rect height="119.336" id="right-margin" style="fill:#00AEEF;stroke:none;opacity:0.4;" width="8.74023" x="1499.65" y="1030.79"/>
 </g>
 <g id="Symbols">
  <g id="Black-L" transform="matrix(1 0 0 1 2854.05 1556)">
   <path d="M 79.3457 32.8613 C 116.748 32.8613 147.412 2.19727 147.412 -35.2051 C 147.412 -72.6074 116.748 -103.271 79.2969 -103.271 C 41.8945 -103.271 11.2793 -72.6074 11.2793 -35.2051 C 11.2793 2.19727 41.9434 32.8613 79.3457 32.8613 Z M 79.3457 12.4023 C 52.9785 12.4023 31.7383 -8.83789 31.7383 -35.2051 C 31.7383 -61.5723 52.9297 -82.8125 79.2969 -82.8125 C 105.664 -82.8125 126.953 -61.5723 126.953 -35.2051 C 127.002 -8.83789 105.713 12.4023 79.3457 12.4023 Z M 77.5879 -24.3652 C 82.0801 -24.3652 85.4004 -26.5137 86.084 -29.4922 C 86.1816 -29.6875 86.2305 -29.9316 86.2793 -30.0781 C 87.0605 -32.4707 89.8438 -34.4238 92.9199 -36.3281 C 99.5117 -40.4297 102.49 -43.8965 102.49 -50.5859 C 102.49 -61.2793 92.4805 -68.4082 79.6875 -68.4082 C 68.8965 -68.4082 60.8887 -64.209 58.1055 -58.0078 C 57.5195 -56.7383 57.2266 -55.4688 57.2266 -54.0527 C 57.2266 -50.2441 60.1562 -47.0703 65.5762 -47.0703 C 69.7754 -47.0703 71.4355 -49.0234 73.1445 -50.6348 C 75.1953 -52.5879 76.6602 -53.418 78.6133 -53.418 C 81.2012 -53.418 82.8613 -51.9043 82.8613 -49.5117 C 82.8613 -46.875 80.2246 -44.9707 75.4883 -41.748 C 71.1914 -38.7695 68.2129 -35.8398 68.2129 -31.5918 L 68.2129 -31.3965 C 68.2129 -26.7578 71.5332 -24.3652 77.5879 -24.3652 Z M 77.5879 -3.22266 C 83.0078 -3.22266 87.0117 -6.34766 87.0117 -11.4746 C 87.0117 -16.6016 83.0078 -19.7754 77.5879 -19.7754 C 72.1191 -19.7754 68.0176 -16.6016 68.0176 -11.4746 C 68.0176 -6.34766 72.168 -3.22266 77.5879 -3.22266 Z"/>
  </g>
  <g id="Heavy-L" transform="matrix(1 0 0 1 2558.39 1556)">
   <path d="M 78.2715 31.7871 C 115.088 31.7871 145.312 1.61133 145.312 -35.2051 C 145.312 -72.0215 115.039 -102.197 78.2715 -102.197 C 41.4551 -102.197 11.2793 -72.0215 11.2793 -35.2051 C 11.2793 1.61133 41.5039 31.7871 78.2715 31.7871 Z M 78.2715 14.0137 C 51.0254 14.0137 29.0527 -7.95898 29.0527 -35.2051 C 29.0527 -62.5 50.9766 -84.4727 78.2715 -84.4727 C 105.518 -84.4727 127.49 -62.5 127.539 -35.2051 C 127.539 -7.95898 105.566 14.0137 78.2715 14.0137 Z M 76.6113 -23.877 C 80.7617 -23.877 83.6426 -25.9277 84.1797 -28.7109 C 84.2285 -28.9551 84.2773 -29.248 84.3262 -29.4434 C 84.9121 -32.1289 87.5 -34.1309 90.918 -36.3281 C 97.4609 -40.4297 100.635 -43.9453 100.635 -50.7324 C 100.635 -61.2305 90.918 -68.0176 78.6621 -68.0176 C 67.9688 -68.0176 60.2051 -63.5254 57.7148 -57.4219 C 57.1777 -56.2012 56.9336 -54.9805 56.9336 -53.6621 C 56.9336 -50.1953 59.6191 -47.4609 64.209 -47.4609 C 68.1152 -47.4609 69.5312 -49.3164 71.1914 -51.0742 C 73.1934 -53.5156 75.1465 -54.7852 77.7832 -54.7852 C 81.2012 -54.7852 83.4473 -52.832 83.4473 -49.8047 C 83.4473 -46.7773 80.8105 -44.7754 75.8789 -41.3574 C 71.4844 -38.3301 68.5059 -35.3027 68.5059 -30.7129 L 68.5059 -30.2734 C 68.5059 -26.0254 71.3867 -23.877 76.6113 -23.877 Z M 76.6113 -3.41797 C 81.543 -3.41797 85.3027 -6.44531 85.3027 -11.1328 C 85.3027 -15.8203 81.5918 -18.8965 76.6113 -18.8965 C 71.6797 -18.8965 67.8711 -15.8203 67.8711 -11.1328 C 67.8711 -6.44531 71.6797 -3.41797 76.6113 -3.41797 Z"/>
  </g>
  <g id="Bold-L" transform="matrix(1 0 0 1 2262.88 1556)">
   <path d="M 77.0996 30.6152 C 113.232 30.6152 142.92 0.878906 142.92 -35.2051 C 142.92 -71.3379 113.184 -101.025 77.0508 -101.025 C 40.9668 -101.025 11.2793 -71.3379 11.2793 -35.2051 C 11.2793 0.878906 41.0156 30.6152 77.0996 30.6152 Z M 77.0996 15.8691 C 48.8281 15.8691 26.0742 -6.93359 26.0742 -35.2051 C 26.0742 -63.4766 48.7793 -86.2793 77.0508 -86.2793 C 105.371 -86.2793 128.125 -63.4766 128.174 -35.2051 C 128.174 -6.93359 105.371 15.8691 77.0996 15.8691 Z M 75.5859 -23.3398 C 79.1992 -23.3398 81.6895 -25.2441 82.0312 -27.832 C 82.0801 -28.125 82.0801 -28.418 82.1289 -28.6621 C 82.5195 -31.6895 84.9121 -33.7891 88.7207 -36.2793 C 95.1172 -40.3809 98.584 -43.9941 98.584 -50.8789 C 98.584 -61.1328 89.209 -67.5293 77.5391 -67.5293 C 66.8945 -67.5293 59.4238 -62.793 57.2754 -56.6895 C 56.8359 -55.5664 56.5918 -54.4434 56.5918 -53.2715 C 56.5918 -50.1465 59.0332 -47.9004 62.6465 -47.9004 C 66.2598 -47.9004 67.3828 -49.6582 69.043 -51.5137 C 70.9473 -54.541 73.3887 -56.3477 76.8555 -56.3477 C 81.25 -56.3477 84.082 -53.8574 84.082 -50.1465 C 84.082 -46.6797 81.4941 -44.5801 76.3184 -41.0156 C 71.7773 -37.8906 68.75 -34.7656 68.75 -29.6875 L 68.75 -29.0039 C 68.75 -25.2441 71.1914 -23.3398 75.5859 -23.3398 Z M 75.5371 -3.61328 C 79.9316 -3.61328 83.3496 -6.49414 83.3496 -10.7422 C 83.3496 -14.9902 79.9316 -17.8711 75.5371 -17.8711 C 71.1426 -17.8711 67.6758 -14.9902 67.6758 -10.7422 C 67.6758 -6.54297 71.1426 -3.61328 75.5371 -3.61328 Z"/>
  </g>
  <g id="Semibold-L" transform="matrix(1 0 0 1 1966.97 1556)">
   <path d="M 76.2695 29.7852 C 111.914 29.7852 141.309 0.439453 141.309 -35.2051 C 141.309 -70.8496 111.865 -100.244 76.2695 -100.244 C 40.625 -100.244 11.2793 -70.8496 11.2793 -35.2051 C 11.2793 0.439453 40.6738 29.7852 76.2695 29.7852 Z M 76.2695 17.0898 C 47.3145 17.0898 24.0234 -6.25 24.0234 -35.2051 C 24.0234 -64.209 47.2656 -87.5 76.2695 -87.5 C 105.225 -87.5 128.564 -64.209 128.613 -35.2051 C 128.662 -6.25 105.273 17.0898 76.2695 17.0898 Z M 74.8535 -22.9492 C 78.1738 -22.9492 80.3223 -24.8047 80.5664 -27.2461 C 80.5664 -27.5391 80.5664 -27.8809 80.6152 -28.1738 C 80.8594 -31.4453 83.1055 -33.5938 87.1582 -36.2793 C 93.5059 -40.3809 97.1191 -44.043 97.1191 -51.0254 C 97.1191 -61.084 87.9883 -67.2363 76.7578 -67.2363 C 66.1621 -67.2363 58.8867 -62.2559 56.9824 -56.25 C 56.5918 -55.1758 56.3965 -54.1016 56.3965 -52.9785 C 56.3965 -50.0977 58.6426 -48.1934 61.6211 -48.1934 C 64.9902 -48.1934 65.918 -49.9023 67.5781 -51.8555 C 69.3848 -55.2734 72.2168 -57.4219 76.1719 -57.4219 C 81.25 -57.4219 84.5215 -54.541 84.5215 -50.3418 C 84.5215 -46.582 81.9336 -44.4336 76.5625 -40.7227 C 72.0215 -37.5488 68.9941 -34.375 68.9941 -29.0039 L 68.9941 -28.125 C 68.9941 -24.707 71.0938 -22.9492 74.8535 -22.9492 Z M 74.8047 -3.75977 C 78.8086 -3.75977 82.0312 -6.5918 82.0312 -10.498 C 82.0312 -14.4043 78.8574 -17.1875 74.8047 -17.1875 C 70.752 -17.1875 67.5293 -14.3555 67.5293 -10.498 C 67.5293 -6.64062 70.8008 -3.75977 74.8047 -3.75977 Z"/>
  </g>
  <g id="Medium-L" transform="matrix(1 0 0 1 1670.87 1556)">
   <path d="M 75.6836 29.1992 C 110.938 29.1992 140.088 0.0488281 140.088 -35.2051 C 140.088 -70.459 110.889 -99.6094 75.6348 -99.6094 C 40.3809 -99.6094 11.2793 -70.459 11.2793 -35.2051 C 11.2793 0.0488281 40.3809 29.1992 75.6836 29.1992 Z M 75.6836 18.0664 C 46.1426 18.0664 22.4609 -5.71289 22.4609 -35.2051 C 22.4609 -64.6973 46.1426 -88.4766 75.6348 -88.4766 C 105.127 -88.4766 128.906 -64.6973 128.906 -35.2051 C 128.955 -5.71289 105.176 18.0664 75.6836 18.0664 Z M 74.3164 -22.6562 C 77.3438 -22.6562 79.2969 -24.4629 79.4434 -26.7578 C 79.4434 -27.0996 79.4434 -27.4902 79.4434 -27.7832 C 79.5898 -31.2012 81.7383 -33.4473 85.9863 -36.2793 C 92.2852 -40.3809 96.0449 -44.043 96.0449 -51.0742 C 96.0449 -61.084 87.0605 -66.9922 76.1719 -66.9922 C 65.5762 -66.9922 58.4961 -61.8652 56.7383 -55.8594 C 56.3965 -54.834 56.2012 -53.8086 56.2012 -52.7344 C 56.2012 -50.0488 58.3008 -48.3887 60.791 -48.3887 C 64.0137 -48.3887 64.8438 -50.0977 66.4551 -52.0996 C 68.2129 -55.7617 71.2891 -58.2031 75.6836 -58.2031 C 81.2988 -58.2031 84.8633 -55.0781 84.8633 -50.5371 C 84.8633 -46.5332 82.3242 -44.3359 76.8066 -40.5273 C 72.168 -37.3047 69.1406 -34.082 69.1406 -28.4668 L 69.1406 -27.4414 C 69.1406 -24.3164 70.9961 -22.6562 74.3164 -22.6562 Z M 74.2188 -3.85742 C 77.9297 -3.85742 81.0059 -6.64062 81.0059 -10.3027 C 81.0059 -13.9648 77.9785 -16.6992 74.2188 -16.6992 C 70.459 -16.6992 67.4316 -13.916 67.4316 -10.3027 C 67.4316 -6.68945 70.5078 -3.85742 74.2188 -3.85742 Z"/>
  </g>
  <g id="Regular-L" transform="matrix(1 0 0 1 1374.97 1556)">
   <path d="M 74.8535 28.3691 C 109.668 28.3691 138.477 -0.390625 138.477 -35.2051 C 138.477 -70.0195 109.619 -98.7793 74.8047 -98.7793 C 40.0391 -98.7793 11.2793 -70.0195 11.2793 -35.2051 C 11.2793 -0.390625 40.0879 28.3691 74.8535 28.3691 Z M 74.8535 19.2871 C 44.6777 19.2871 20.4102 -5.0293 20.4102 -35.2051 C 20.4102 -65.3809 44.6289 -89.6973 74.8047 -89.6973 C 105.029 -89.6973 129.297 -65.3809 129.346 -35.2051 C 129.395 -5.0293 105.078 19.2871 74.8535 19.2871 Z M 73.6328 -22.3145 C 76.3184 -22.3145 77.9297 -24.0234 77.9297 -26.1719 L 77.9297 -27.2949 C 77.9297 -30.957 79.9316 -33.2031 84.4727 -36.2305 C 90.7227 -40.3809 94.6289 -44.0918 94.6289 -51.2207 C 94.6289 -61.0352 85.8887 -66.6504 75.4395 -66.6504 C 64.8438 -66.6504 57.959 -61.377 56.4453 -55.3711 C 56.1523 -54.4434 56.0059 -53.4668 56.0059 -52.4414 C 56.0059 -50 57.9102 -48.6816 59.7656 -48.6816 C 62.793 -48.6816 63.3789 -50.293 64.9902 -52.3926 C 66.6992 -56.4941 70.1172 -59.2773 75.0488 -59.2773 C 81.2988 -59.2773 85.3027 -55.8105 85.3027 -50.7812 C 85.3027 -46.4844 82.7637 -44.2383 77.0996 -40.2832 C 72.3633 -36.9629 69.3359 -33.6914 69.3359 -27.7832 L 69.3359 -26.5625 C 69.3359 -23.7793 70.8984 -22.3145 73.6328 -22.3145 Z M 73.4863 -4.00391 C 76.8555 -4.00391 79.6875 -6.68945 79.6875 -10.0098 C 79.6875 -13.3789 76.9043 -16.0156 73.4863 -16.0156 C 70.1172 -16.0156 67.2852 -13.3301 67.2852 -10.0098 C 67.2852 -6.73828 70.166 -4.00391 73.4863 -4.00391 Z"/>
  </g>
  <g id="Light-L" transform="matrix(1 0 0 1 1079.18 1556)">
   <path d="M 73.9258 27.4902 C 108.301 27.4902 136.621 -0.830078 136.621 -35.1562 C 136.621 -69.5312 108.252 -97.8516 73.9258 -97.8516 C 39.5508 -97.8516 11.2793 -69.5312 11.2793 -35.1562 C 11.2793 -0.830078 39.5996 27.4902 73.9258 27.4902 Z M 73.9258 20.6055 C 43.1152 20.6055 18.2129 -4.3457 18.2129 -35.1562 C 18.2129 -66.0156 43.0664 -90.918 73.9258 -90.918 C 104.736 -90.918 129.688 -66.0156 129.736 -35.1562 C 129.736 -4.3457 104.785 20.6055 73.9258 20.6055 Z M 72.7539 -22.4121 C 74.8047 -22.4121 76.0742 -23.7793 76.0742 -25.5371 L 76.0742 -27.0996 C 76.0742 -30.9082 77.9785 -33.252 82.7148 -36.4746 C 89.1113 -40.7715 92.4316 -44.4824 92.4316 -51.0254 C 92.4316 -59.9121 84.4727 -65.5762 74.3652 -65.5762 C 64.1602 -65.5762 57.5684 -60.0586 56.3477 -53.8086 C 56.1523 -52.9297 56.0059 -52.0508 56.0059 -51.123 C 56.0059 -49.2188 57.4707 -48.1445 58.9844 -48.1445 C 61.2793 -48.1445 61.8652 -49.4141 62.8906 -51.123 C 64.1602 -56.0547 68.0664 -59.7656 74.0723 -59.7656 C 80.957 -59.7656 85.3027 -56.0059 85.3027 -50.6348 C 85.3027 -46.3379 82.959 -43.8477 77.0508 -39.7461 C 72.0703 -36.2793 69.4336 -33.0078 69.4336 -27.4902 L 69.4336 -25.7812 C 69.4336 -23.6328 70.7031 -22.4121 72.7539 -22.4121 Z M 72.6562 -4.83398 C 75.5859 -4.83398 78.0273 -7.22656 78.0273 -10.1074 C 78.0273 -13.0371 75.6348 -15.3809 72.6562 -15.3809 C 69.6777 -15.3809 67.2852 -12.9883 67.2852 -10.1074 C 67.2852 -7.27539 69.7266 -4.83398 72.6562 -4.83398 Z"/>
  </g>
  <g id="Thin-L" transform="matrix(1 0 0 1 783.693 1556)">
   <path d="M 72.7051 26.3184 C 106.494 26.3184 134.18 -1.36719 134.18 -35.1074 C 134.18 -68.8965 106.494 -96.582 72.7051 -96.582 C 38.9648 -96.582 11.2793 -68.8965 11.2793 -35.1074 C 11.2793 -1.36719 38.9648 26.3184 72.7051 26.3184 Z M 72.7051 22.3145 C 41.0156 22.3145 15.2832 -3.41797 15.2832 -35.1074 C 15.2832 -66.8457 41.0156 -92.5781 72.7051 -92.5781 C 104.395 -92.5781 130.176 -66.8457 130.176 -35.1074 C 130.176 -3.41797 104.443 22.3145 72.7051 22.3145 Z M 71.6309 -22.6074 C 72.8516 -22.6074 73.6328 -23.4375 73.6328 -24.6582 L 73.6328 -26.8066 C 73.6328 -30.8594 75.3418 -33.252 80.4199 -36.7188 C 87.0117 -41.2598 89.5508 -44.9707 89.5508 -50.7812 C 89.5508 -58.4961 82.6172 -64.1113 72.9492 -64.1113 C 63.2324 -64.1113 57.0312 -58.3496 56.2012 -51.7578 C 56.1035 -50.9766 56.0059 -50.2441 56.0059 -49.4141 C 56.0059 -48.1934 56.8848 -47.4609 57.959 -47.4609 C 59.2773 -47.4609 59.9121 -48.1934 60.1562 -49.4141 C 60.8398 -55.4688 65.3809 -60.4492 72.7539 -60.4492 C 80.4688 -60.4492 85.3516 -56.25 85.3516 -50.4883 C 85.3516 -46.1914 83.2031 -43.3594 77.002 -39.0625 C 71.6797 -35.3516 69.6289 -32.1289 69.6289 -27.0996 L 69.6289 -24.707 C 69.6289 -23.4375 70.459 -22.6074 71.6309 -22.6074 Z M 71.582 -5.95703 C 73.9746 -5.95703 75.8789 -7.95898 75.8789 -10.2051 C 75.8789 -12.5488 73.9746 -14.502 71.582 -14.502 C 69.1406 -14.502 67.2363 -12.5488 67.2363 -10.2051 C 67.2363 -7.95898 69.1895 -5.95703 71.582 -5.95703 Z"/>
  </g>
  <g id="Ultralight-L" transform="matrix(1 0 0 1 487.616 1556)">
   <path d="M 72.1191 25.7324 C 105.566 25.7324 132.91 -1.61133 132.91 -35.1074 C 132.91 -68.5547 105.566 -95.8984 72.1191 -95.8984 C 38.623 -95.8984 11.2793 -68.5547 11.2793 -35.1074 C 11.2793 -1.61133 38.623 25.7324 72.1191 25.7324 Z M 72.1191 23.2422 C 39.9414 23.2422 13.7695 -2.97852 13.7695 -35.1074 C 13.7695 -67.2363 39.9414 -93.4082 72.1191 -93.4082 C 104.248 -93.4082 130.42 -67.2363 130.42 -35.1074 C 130.42 -2.97852 104.248 23.2422 72.1191 23.2422 Z M 71.0938 -22.7051 C 71.8262 -22.7051 72.3633 -23.291 72.3633 -24.2188 L 72.3633 -26.6602 C 72.3633 -30.8105 74.0234 -33.252 79.1992 -36.8652 C 85.9375 -41.5039 88.0859 -45.2148 88.0859 -50.6348 C 88.0859 -57.7637 81.6895 -63.3789 72.2168 -63.3789 C 62.7441 -63.3789 56.7383 -57.4219 56.1035 -50.6836 C 56.0547 -50 56.0059 -49.2676 56.0059 -48.5352 C 56.0059 -47.6562 56.5918 -47.0703 57.4219 -47.0703 C 58.252 -47.0703 58.8867 -47.6074 58.7891 -48.5352 C 59.082 -55.127 64.0137 -60.7422 72.0703 -60.7422 C 80.2246 -60.7422 85.3516 -56.3965 85.3516 -50.4395 C 85.3516 -46.0938 83.3008 -43.1152 76.9531 -38.7207 C 71.4844 -34.8633 69.7266 -31.6895 69.7266 -26.9043 L 69.7266 -24.1699 C 69.7266 -23.3398 70.3125 -22.7051 71.0938 -22.7051 Z M 70.9961 -6.49414 C 73.0957 -6.49414 74.7559 -8.34961 74.7559 -10.3027 C 74.7559 -12.3047 73.0957 -14.0625 70.9961 -14.0625 C 68.8965 -14.0625 67.2363 -12.3047 67.2363 -10.3027 C 67.2363 -8.34961 68.8965 -6.49414 70.9961 -6.49414 Z"/>
  </g>
  <g id="Black-M" transform="matrix(1 0 0 1 2870.97 1126)">
   <path d="M 62.4023 18.457 C 91.9922 18.457 116.113 -5.61523 116.113 -35.2051 C 116.113 -64.7949 91.9922 -88.8672 62.4023 -88.8672 C 32.8125 -88.8672 8.74023 -64.7949 8.74023 -35.2051 C 8.74023 -5.61523 32.8125 18.457 62.4023 18.457 Z M 62.4023 0.195312 C 42.8711 0.195312 27.002 -15.625 27.002 -35.2051 C 27.002 -54.7363 42.8711 -70.6055 62.4023 -70.6055 C 81.9824 -70.6055 97.8027 -54.7363 97.8027 -35.2051 C 97.8027 -15.625 81.9824 0.195312 62.4023 0.195312 Z M 60.8887 -27.5391 C 64.6484 -27.5391 67.5781 -29.1504 68.3105 -31.4453 C 68.4082 -31.6406 68.457 -31.8848 68.5059 -32.0312 C 69.3359 -33.5449 71.7285 -34.9609 73.7793 -36.2305 C 79.1016 -39.4531 80.7617 -42.041 80.7617 -46.8262 C 80.7617 -54.9316 73.0469 -60.9375 62.5488 -60.9375 C 54.2969 -60.9375 47.8516 -57.9102 45.5078 -52.8809 C 44.9707 -51.8555 44.7266 -50.8301 44.7266 -49.6582 C 44.7266 -46.5332 47.1191 -43.6035 52.2461 -43.6035 C 55.4688 -43.6035 57.1289 -45.0195 58.1543 -45.9473 C 59.668 -47.2168 60.4492 -47.7051 61.5234 -47.7051 C 62.6953 -47.7051 63.4766 -47.0215 63.4766 -45.8008 C 63.4766 -44.2871 61.4746 -42.8223 58.0078 -40.4297 C 54.6387 -38.1348 52.5879 -36.0352 52.5879 -33.4961 L 52.5879 -33.3496 C 52.5879 -29.541 55.5664 -27.5391 60.8887 -27.5391 Z M 60.9863 -10.5957 C 65.625 -10.5957 68.8965 -13.0371 68.8965 -17.334 C 68.8965 -21.6309 65.625 -24.1211 60.9863 -24.1211 C 56.3477 -24.1211 52.9297 -21.6797 52.9297 -17.334 C 52.9297 -13.0371 56.3477 -10.5957 60.9863 -10.5957 Z"/>
  </g>
  <g id="Heavy-M" transform="matrix(1 0 0 1 2575.19 1126)">
   <path d="M 61.5234 17.5781 C 90.5273 17.5781 114.258 -6.15234 114.258 -35.2051 C 114.258 -64.2578 90.5273 -87.9883 61.4746 -87.9883 C 32.4707 -87.9883 8.74023 -64.2578 8.74023 -35.2051 C 8.74023 -6.15234 32.4707 17.5781 61.5234 17.5781 Z M 61.5234 1.66016 C 41.1133 1.66016 24.6582 -14.8438 24.6582 -35.2051 C 24.6582 -55.5664 41.1133 -72.0703 61.4746 -72.0703 C 81.8848 -72.0703 98.3398 -55.5664 98.3398 -35.2051 C 98.3398 -14.8438 81.8848 1.66016 61.5234 1.66016 Z M 60.1074 -26.9531 C 63.5742 -26.9531 66.1133 -28.5645 66.6992 -30.7617 C 66.748 -30.957 66.7969 -31.2012 66.8457 -31.3477 C 67.4805 -33.1543 69.6777 -34.668 72.0215 -36.1328 C 77.1973 -39.3555 79.2969 -42.041 79.2969 -47.0215 C 79.2969 -55.127 71.6797 -60.7422 61.7188 -60.7422 C 53.4668 -60.7422 47.2168 -57.5195 45.0684 -52.6367 C 44.6289 -51.6113 44.4336 -50.6836 44.4336 -49.5605 C 44.4336 -46.6797 46.6309 -44.1406 50.9277 -44.1406 C 54.0527 -44.1406 55.4199 -45.6055 56.5918 -46.7285 C 58.1055 -48.3398 59.2773 -49.1211 60.8398 -49.1211 C 62.793 -49.1211 64.0625 -47.9492 64.0625 -46.1914 C 64.0625 -44.2383 62.0605 -42.7246 58.3984 -40.1855 C 55.0293 -37.8906 52.832 -35.6445 52.832 -32.5684 L 52.832 -32.3242 C 52.832 -28.8086 55.4199 -26.9531 60.1074 -26.9531 Z M 60.1562 -10.5957 C 64.3555 -10.5957 67.4316 -12.9883 67.4316 -16.9434 C 67.4316 -20.8984 64.3555 -23.291 60.1562 -23.291 C 55.9082 -23.291 52.7832 -20.8984 52.7832 -16.9434 C 52.7832 -12.9883 55.9082 -10.5957 60.1562 -10.5957 Z"/>
  </g>
  <g id="Bold-M" transform="matrix(1 0 0 1 2279.5 1126)">
   <path d="M 60.498 16.5039 C 88.8672 16.5039 112.207 -6.78711 112.207 -35.2051 C 112.207 -63.623 88.8672 -86.9629 60.4492 -86.9629 C 32.0312 -86.9629 8.74023 -63.623 8.74023 -35.2051 C 8.74023 -6.78711 32.0801 16.5039 60.498 16.5039 Z M 60.498 3.22266 C 39.1602 3.22266 22.0703 -13.916 22.0703 -35.2051 C 22.0703 -56.4941 39.1602 -73.6816 60.4492 -73.6816 C 81.7383 -73.6816 98.9258 -56.4941 98.9258 -35.2051 C 98.9746 -13.916 81.7871 3.22266 60.498 3.22266 Z M 59.2285 -26.3184 C 62.3535 -26.3184 64.502 -27.9297 64.8926 -30.0293 C 64.9414 -30.2246 64.9414 -30.4688 64.9902 -30.6152 C 65.4297 -32.7637 67.3828 -34.3262 70.1172 -36.0352 C 75.1465 -39.2578 77.6855 -41.9922 77.6855 -47.2656 C 77.6855 -55.3711 70.2148 -60.5469 60.791 -60.5469 C 52.4902 -60.5469 46.5332 -57.0801 44.6289 -52.3438 C 44.2871 -51.3672 44.043 -50.4883 44.043 -49.4629 C 44.043 -46.8262 46.0938 -44.7754 49.5117 -44.7754 C 52.4902 -44.7754 53.5645 -46.2402 54.834 -47.6074 C 56.3965 -49.6094 57.959 -50.6348 60.1074 -50.6348 C 62.9395 -50.6348 64.7949 -49.0234 64.7949 -46.582 C 64.7949 -44.1406 62.7441 -42.627 58.8867 -39.9414 C 55.4688 -37.5488 53.125 -35.2051 53.125 -31.543 L 53.125 -31.1523 C 53.125 -27.9785 55.2734 -26.3184 59.2285 -26.3184 Z M 59.1797 -10.5957 C 62.9395 -10.5957 65.7715 -12.8906 65.7715 -16.5039 C 65.7715 -20.0684 62.9395 -22.4121 59.1797 -22.4121 C 55.4688 -22.4121 52.5391 -20.0684 52.5391 -16.5039 C 52.5391 -12.9395 55.4688 -10.5957 59.1797 -10.5957 Z"/>
  </g>
  <g id="Semibold-M" transform="matrix(1 0 0 1 1983.5 1126)">
   <path d="M 59.7656 15.8203 C 87.7441 15.8203 110.791 -7.22656 110.791 -35.2051 C 110.791 -63.1836 87.6953 -86.2793 59.7656 -86.2793 C 31.7871 -86.2793 8.74023 -63.1836 8.74023 -35.2051 C 8.74023 -7.22656 31.7871 15.8203 59.7656 15.8203 Z M 59.7656 4.3457 C 37.8418 4.3457 20.2637 -13.2812 20.2637 -35.2051 C 20.2637 -57.1289 37.793 -74.8047 59.7656 -74.8047 C 81.6895 -74.8047 99.3164 -57.1289 99.3652 -35.2051 C 99.3652 -13.2812 81.6895 4.3457 59.7656 4.3457 Z M 58.5938 -25.8789 C 61.4746 -25.8789 63.4277 -27.4414 63.6719 -29.4922 C 63.6719 -29.6875 63.6719 -29.9316 63.7207 -30.0781 C 63.9648 -32.4707 65.8203 -34.082 68.7988 -35.9863 C 73.7305 -39.1602 76.5625 -41.9434 76.5625 -47.4121 C 76.5625 -55.5664 69.1895 -60.4492 60.1562 -60.4492 C 51.8066 -60.4492 45.9961 -56.7871 44.3359 -52.0996 C 43.9941 -51.2207 43.7988 -50.3418 43.7988 -49.4141 C 43.7988 -46.9238 45.752 -45.2148 48.4863 -45.2148 C 51.416 -45.2148 52.2461 -46.6797 53.6621 -48.1934 C 55.2246 -50.4395 57.0801 -51.709 59.6191 -51.709 C 63.0371 -51.709 65.2344 -49.7559 65.2344 -46.875 C 65.2344 -44.0918 63.2324 -42.5293 59.1797 -39.7461 C 55.7617 -37.3535 53.3203 -34.9121 53.3203 -30.8594 L 53.3203 -30.3711 C 53.3203 -27.3926 55.2246 -25.8789 58.5938 -25.8789 Z M 58.5449 -10.5957 C 61.9629 -10.5957 64.6484 -12.8906 64.6484 -16.1621 C 64.6484 -19.4824 62.0117 -21.7773 58.5449 -21.7773 C 55.127 -21.7773 52.3926 -19.4824 52.3926 -16.1621 C 52.3926 -12.8906 55.1758 -10.5957 58.5449 -10.5957 Z"/>
  </g>
  <g id="Medium-M" transform="matrix(1 0 0 1 1687.3 1126)">
   <path d="M 59.2285 15.2832 C 86.9141 15.2832 109.766 -7.56836 109.766 -35.2051 C 109.766 -62.8906 86.8652 -85.7422 59.1797 -85.7422 C 31.543 -85.7422 8.74023 -62.8906 8.74023 -35.2051 C 8.74023 -7.56836 31.5918 15.2832 59.2285 15.2832 Z M 59.2285 5.17578 C 36.8164 5.17578 18.8965 -12.8418 18.8965 -35.2051 C 18.8965 -57.6172 36.8164 -75.6348 59.1797 -75.6348 C 81.5918 -75.6348 99.6094 -57.6172 99.6582 -35.2051 C 99.707 -12.8418 81.6406 5.17578 59.2285 5.17578 Z M 58.1543 -25.5859 C 60.8398 -25.5859 62.5488 -27.0996 62.6953 -29.1016 C 62.6953 -29.2969 62.7441 -29.541 62.7441 -29.6875 C 62.8906 -32.2266 64.6484 -33.8867 67.7734 -35.9375 C 72.6074 -39.1113 75.6836 -41.9434 75.6836 -47.5586 C 75.6836 -55.6641 68.3594 -60.3516 59.668 -60.3516 C 51.3184 -60.3516 45.6543 -56.543 44.0918 -51.9531 C 43.7988 -51.123 43.6523 -50.2441 43.6523 -49.3652 C 43.6523 -47.0215 45.459 -45.5566 47.7539 -45.5566 C 50.5859 -45.5566 51.2695 -47.0215 52.7344 -48.6816 C 54.2969 -51.123 56.3965 -52.5391 59.2285 -52.5391 C 63.1348 -52.5391 65.625 -50.3418 65.625 -47.0703 C 65.625 -44.0918 63.5742 -42.4805 59.4238 -39.5996 C 55.957 -37.207 53.4668 -34.7168 53.4668 -30.3223 L 53.4668 -29.7852 C 53.4668 -27.002 55.127 -25.5859 58.1543 -25.5859 Z M 58.0566 -10.5469 C 61.2305 -10.5469 63.8184 -12.8418 63.8184 -15.9668 C 63.8184 -19.043 61.2793 -21.3379 58.0566 -21.3379 C 54.8828 -21.3379 52.2949 -19.043 52.2949 -15.9668 C 52.2949 -12.8906 54.9316 -10.5469 58.0566 -10.5469 Z"/>
  </g>
  <g id="Regular-M" transform="matrix(1 0 0 1 1391.3 1126)">
   <path d="M 58.5449 14.5508 C 85.791 14.5508 108.35 -8.00781 108.35 -35.2539 C 108.35 -62.4512 85.7422 -85.0586 58.4961 -85.0586 C 31.2988 -85.0586 8.74023 -62.4512 8.74023 -35.2539 C 8.74023 -8.00781 31.3477 14.5508 58.5449 14.5508 Z M 58.5449 6.25 C 35.498 6.25 17.0898 -12.207 17.0898 -35.2539 C 17.0898 -58.252 35.4492 -76.7578 58.4961 -76.7578 C 81.543 -76.7578 100 -58.252 100.049 -35.2539 C 100.098 -12.207 81.5918 6.25 58.5449 6.25 Z M 57.5195 -25.1465 C 60.0098 -25.1465 61.4746 -26.6602 61.4746 -28.6133 L 61.4746 -29.1992 C 61.4746 -31.9336 63.0859 -33.6426 66.4551 -35.8887 C 71.1914 -39.0137 74.5605 -41.8945 74.5605 -47.7051 C 74.5605 -55.8594 67.334 -60.2051 59.082 -60.2051 C 50.6836 -60.2051 45.166 -56.25 43.7988 -51.7578 C 43.5547 -50.9277 43.4082 -50.1465 43.4082 -49.3164 C 43.4082 -47.168 45.1172 -45.9473 46.7285 -45.9473 C 49.5117 -45.9473 49.9512 -47.4609 51.5137 -49.2676 C 53.125 -51.9531 55.4688 -53.5645 58.7402 -53.5645 C 63.1836 -53.5645 66.1133 -51.0742 66.1133 -47.3145 C 66.1133 -43.9941 64.0137 -42.3828 59.7656 -39.4531 C 56.25 -37.0117 53.6621 -34.4238 53.6621 -29.6387 L 53.6621 -29.0039 C 53.6621 -26.416 55.0293 -25.1465 57.5195 -25.1465 Z M 57.4219 -10.5469 C 60.2539 -10.5469 62.6953 -12.793 62.6953 -15.625 C 62.6953 -18.5059 60.3027 -20.7031 57.4219 -20.7031 C 54.541 -20.7031 52.1484 -18.457 52.1484 -15.625 C 52.1484 -12.8418 54.5898 -10.5469 57.4219 -10.5469 Z"/>
  </g>
  <g id="Light-M" transform="matrix(1 0 0 1 1095.42 1126)">
   <path d="M 57.7148 13.7695 C 84.5215 13.7695 106.689 -8.39844 106.689 -35.2051 C 106.689 -62.0117 84.5215 -84.1797 57.666 -84.1797 C 30.8594 -84.1797 8.74023 -62.0117 8.74023 -35.2051 C 8.74023 -8.39844 30.9082 13.7695 57.7148 13.7695 Z M 57.7148 7.4707 C 34.082 7.4707 15.0879 -11.5723 15.0879 -35.2051 C 15.0879 -58.8379 34.082 -77.832 57.666 -77.832 C 81.2988 -77.832 100.342 -58.8379 100.391 -35.2051 C 100.391 -11.5723 81.3477 7.4707 57.7148 7.4707 Z M 56.7871 -25.2441 C 58.6426 -25.2441 59.8145 -26.4648 59.8145 -28.0273 L 59.8145 -29.0039 C 59.8145 -31.8848 61.2793 -33.6914 64.8926 -36.084 C 69.7754 -39.3555 72.6074 -42.2363 72.6074 -47.5586 C 72.6074 -54.8828 66.1133 -59.2285 58.1055 -59.2285 C 50.0488 -59.2285 44.7754 -55.0781 43.7012 -50.3418 C 43.5059 -49.6094 43.4082 -48.877 43.4082 -48.1445 C 43.4082 -46.4355 44.7266 -45.459 46.0449 -45.459 C 48.1445 -45.459 48.6328 -46.6309 49.6582 -48.0957 C 50.8789 -51.5625 53.6621 -54.0039 57.8613 -54.0039 C 62.8906 -54.0039 66.1133 -51.2207 66.1133 -47.2168 C 66.1133 -43.8965 64.209 -42.0898 59.7168 -38.9648 C 56.0059 -36.377 53.7598 -33.7891 53.7598 -29.3457 L 53.7598 -28.2715 C 53.7598 -26.3184 54.8828 -25.2441 56.7871 -25.2441 Z M 56.6895 -11.3281 C 59.1309 -11.3281 61.2305 -13.2812 61.2305 -15.7227 C 61.2305 -18.1641 59.1797 -20.1172 56.6895 -20.1172 C 54.1992 -20.1172 52.1484 -18.1641 52.1484 -15.7227 C 52.1484 -13.3301 54.248 -11.3281 56.6895 -11.3281 Z"/>
  </g>
  <g id="Thin-M" transform="matrix(1 0 0 1 799.806 1126)">
   <path d="M 56.6406 12.7441 C 82.9102 12.7441 104.492 -8.83789 104.492 -35.1562 C 104.492 -61.4746 82.9102 -83.0566 56.5918 -83.0566 C 30.3223 -83.0566 8.74023 -61.4746 8.74023 -35.1562 C 8.74023 -8.83789 30.3223 12.7441 56.6406 12.7441 Z M 56.6406 8.98438 C 32.2266 8.98438 12.4512 -10.791 12.4512 -35.1562 C 12.4512 -59.5215 32.2266 -79.2969 56.5918 -79.2969 C 81.0059 -79.2969 100.781 -59.5215 100.781 -35.1562 C 100.781 -10.791 81.0059 8.98438 56.6406 8.98438 Z M 55.7617 -25.3906 C 56.8848 -25.3906 57.5684 -26.1719 57.5684 -27.1973 L 57.5684 -28.7598 C 57.5684 -31.8359 58.9355 -33.6914 62.8418 -36.3281 C 67.9199 -39.7949 70.0195 -42.6758 70.0195 -47.3145 C 70.0195 -53.5645 64.4531 -57.9102 56.8359 -57.9102 C 49.2188 -57.9102 44.2871 -53.5156 43.5547 -48.4863 C 43.457 -47.8516 43.4082 -47.2656 43.4082 -46.582 C 43.4082 -45.5078 44.1895 -44.8242 45.1172 -44.8242 C 46.3379 -44.8242 46.8262 -45.5566 47.2168 -46.582 C 47.8516 -51.0254 51.2695 -54.6387 56.6406 -54.6387 C 62.4512 -54.6387 66.1133 -51.4648 66.1133 -47.1191 C 66.1133 -43.75 64.4043 -41.6504 59.668 -38.3301 C 55.6641 -35.5469 53.9062 -33.0078 53.9062 -29.0039 L 53.9062 -27.2949 C 53.9062 -26.123 54.6387 -25.3906 55.7617 -25.3906 Z M 55.7129 -12.3047 C 57.666 -12.3047 59.2773 -13.9648 59.2773 -15.8203 C 59.2773 -17.7734 57.666 -19.3359 55.7129 -19.3359 C 53.7109 -19.3359 52.1484 -17.7246 52.1484 -15.8203 C 52.1484 -13.9648 53.7109 -12.3047 55.7129 -12.3047 Z"/>
  </g>
  <g id="Ultralight-M" transform="matrix(1 0 0 1 503.656 1126)">
   <path d="M 56.0547 12.207 C 82.0801 12.207 103.369 -9.08203 103.369 -35.1562 C 103.369 -61.1816 82.0801 -82.4707 56.0547 -82.4707 C 30.0293 -82.4707 8.74023 -61.1816 8.74023 -35.1562 C 8.74023 -9.08203 30.0293 12.207 56.0547 12.207 Z M 56.0547 9.81445 C 31.2988 9.81445 11.1328 -10.3516 11.1328 -35.1562 C 11.1328 -59.9121 31.2988 -80.0781 56.0547 -80.0781 C 80.8594 -80.0781 100.977 -59.9121 100.977 -35.1562 C 100.977 -10.3516 80.8594 9.81445 56.0547 9.81445 Z M 55.2734 -25.4883 C 55.957 -25.4883 56.4453 -26.0254 56.4453 -26.8066 L 56.4453 -28.6621 C 56.4453 -31.8359 57.7637 -33.6914 61.7676 -36.4746 C 66.9434 -40.0391 68.7012 -42.8711 68.7012 -47.2168 C 68.7012 -52.9297 63.5742 -57.2754 56.2012 -57.2754 C 48.7793 -57.2754 44.043 -52.6855 43.5059 -47.5098 C 43.457 -46.9727 43.4082 -46.3867 43.4082 -45.8008 C 43.4082 -45.0195 43.9453 -44.5312 44.6777 -44.5312 C 45.459 -44.5312 45.9473 -45.0195 45.9473 -45.8008 C 46.3379 -50.7812 50 -54.9316 56.0547 -54.9316 C 62.2559 -54.9316 66.1621 -51.6113 66.1621 -47.0215 C 66.1621 -43.6523 64.5508 -41.4062 59.668 -38.0371 C 55.4688 -35.1074 54.0039 -32.6172 54.0039 -28.8086 L 54.0039 -26.8066 C 54.0039 -26.0254 54.541 -25.4883 55.2734 -25.4883 Z M 55.1758 -12.793 C 56.9336 -12.793 58.252 -14.3066 58.252 -15.8691 C 58.252 -17.5293 56.9336 -18.9453 55.1758 -18.9453 C 53.4668 -18.9453 52.0996 -17.5293 52.0996 -15.8691 C 52.0996 -14.3066 53.4668 -12.793 55.1758 -12.793 Z"/>
  </g>
  <g id="Black-S" transform="matrix(1 0 0 1 2884.57 696)">
   <path d="M 48.8281 6.78711 C 71.9727 6.78711 90.8203 -12.0605 90.8203 -35.2051 C 90.8203 -58.3496 71.9727 -77.1973 48.8281 -77.1973 C 25.6836 -77.1973 6.83594 -58.3496 6.83594 -35.2051 C 6.83594 -12.0605 25.6836 6.78711 48.8281 6.78711 Z M 48.8281 -7.37305 C 33.4473 -7.37305 20.9961 -19.8242 20.9961 -35.2051 C 20.9961 -50.5859 33.4473 -63.0371 48.8281 -63.0371 C 64.209 -63.0371 76.6602 -50.5859 76.6602 -35.2051 C 76.6602 -19.8242 64.209 -7.37305 48.8281 -7.37305 Z M 47.6562 -29.1504 C 50.5859 -29.1504 52.832 -30.4199 53.418 -32.2266 C 53.4668 -32.373 53.5156 -32.5684 53.5645 -32.666 C 54.1992 -33.8867 56.0547 -35.0098 57.666 -35.9863 C 61.8164 -38.5254 63.1836 -40.5762 63.1836 -44.3359 C 63.1836 -50.6836 57.1289 -55.3711 48.9258 -55.3711 C 42.4805 -55.3711 37.4512 -52.9785 35.5957 -49.0723 C 35.2051 -48.2422 35.0098 -47.4609 35.0098 -46.5332 C 35.0098 -44.0918 36.8652 -41.8457 40.8203 -41.8457 C 43.3594 -41.8457 44.6289 -42.9688 45.459 -43.7012 C 46.6309 -44.7266 47.2656 -45.1172 48.1445 -45.1172 C 49.1211 -45.1172 49.7559 -44.5312 49.7559 -43.5547 C 49.7559 -42.334 48.1934 -41.1621 45.459 -39.3066 C 42.8223 -37.5 41.2109 -35.8398 41.2109 -33.7891 L 41.2109 -33.6914 C 41.2109 -30.7129 43.5059 -29.1504 47.6562 -29.1504 Z M 47.7051 -15.918 C 51.3184 -15.918 53.8574 -17.8223 53.8574 -21.1914 C 53.8574 -24.5117 51.3184 -26.4648 47.7051 -26.4648 C 44.0918 -26.4648 41.4551 -24.5605 41.4551 -21.1914 C 41.4551 -17.8223 44.0918 -15.918 47.7051 -15.918 Z"/>
  </g>
  <g id="Heavy-S" transform="matrix(1 0 0 1 2588.47 696)">
   <path d="M 48.2422 6.15234 C 70.9961 6.15234 89.5996 -12.4512 89.5996 -35.2051 C 89.5996 -57.959 70.9961 -76.6113 48.1934 -76.6113 C 25.4395 -76.6113 6.83594 -57.959 6.83594 -35.2051 C 6.83594 -12.4512 25.4395 6.15234 48.2422 6.15234 Z M 48.2422 -6.39648 C 32.2754 -6.39648 19.4336 -19.2871 19.4336 -35.2051 C 19.4336 -51.1719 32.2754 -64.0137 48.1934 -64.0137 C 64.1602 -64.0137 77.002 -51.1719 77.0508 -35.2051 C 77.0508 -19.2871 64.1602 -6.39648 48.2422 -6.39648 Z M 47.1191 -28.7109 C 49.9023 -28.7109 51.9043 -29.9805 52.3438 -31.7871 C 52.3926 -31.8848 52.4414 -32.0801 52.4902 -32.1777 C 52.9785 -33.5938 54.6875 -34.7656 56.543 -35.8887 C 60.5469 -38.4277 62.3047 -40.5273 62.3047 -44.5312 C 62.3047 -50.9766 56.25 -55.3711 48.3887 -55.3711 C 41.8945 -55.3711 37.0117 -52.832 35.3027 -49.0234 C 34.9609 -48.2422 34.7656 -47.4609 34.7656 -46.582 C 34.7656 -44.2871 36.5723 -42.334 39.8926 -42.334 C 42.4316 -42.334 43.5059 -43.5059 44.4824 -44.4336 C 45.7031 -45.6055 46.582 -46.1426 47.7539 -46.1426 C 49.2676 -46.1426 50.2441 -45.2637 50.2441 -43.8477 C 50.2441 -42.2852 48.6328 -41.1133 45.8008 -39.1602 C 43.1641 -37.3535 41.4062 -35.5957 41.4062 -33.1055 L 41.4062 -33.0078 C 41.4062 -30.1758 43.4082 -28.7109 47.1191 -28.7109 Z M 47.168 -15.8203 C 50.4883 -15.8203 52.8809 -17.7246 52.8809 -20.8496 C 52.8809 -23.9746 50.4883 -25.9277 47.168 -25.9277 C 43.7988 -25.9277 41.3086 -24.0234 41.3086 -20.8496 C 41.3086 -17.7246 43.8477 -15.8203 47.168 -15.8203 Z"/>
  </g>
  <g id="Bold-S" transform="matrix(1 0 0 1 2292.44 696)">
   <path d="M 47.5586 5.46875 C 69.873 5.46875 88.2324 -12.8906 88.2324 -35.2051 C 88.2324 -57.5684 69.873 -75.9277 47.5098 -75.9277 C 25.1953 -75.9277 6.83594 -57.5684 6.83594 -35.2051 C 6.83594 -12.8906 25.1953 5.46875 47.5586 5.46875 Z M 47.5586 -5.32227 C 30.957 -5.32227 17.6758 -18.6523 17.6758 -35.2051 C 17.6758 -51.8066 30.957 -65.1367 47.5098 -65.1367 C 64.1113 -65.1367 77.4414 -51.8066 77.4414 -35.2051 C 77.4414 -18.6523 64.1113 -5.32227 47.5586 -5.32227 Z M 46.5332 -28.2227 C 49.1211 -28.2227 50.8789 -29.541 51.1719 -31.2988 C 51.2207 -31.3965 51.2207 -31.543 51.2695 -31.6406 C 51.5625 -33.252 53.1738 -34.5215 55.2734 -35.8398 C 59.1309 -38.2812 61.2793 -40.4297 61.2793 -44.7266 C 61.2793 -51.2695 55.2734 -55.3223 47.8027 -55.3223 C 41.2598 -55.3223 36.4746 -52.6367 34.9609 -48.9746 C 34.668 -48.1934 34.5215 -47.5098 34.5215 -46.6797 C 34.5215 -44.4824 36.1816 -42.8711 38.8672 -42.8711 C 41.4062 -42.8711 42.1875 -44.0918 43.3594 -45.2637 C 44.6777 -46.6309 45.8008 -47.2656 47.3145 -47.2656 C 49.4141 -47.2656 50.7812 -46.0449 50.7812 -44.1406 C 50.7812 -42.2363 49.1211 -41.0645 46.1426 -39.0137 C 43.5059 -37.207 41.6016 -35.3516 41.6016 -32.373 L 41.6016 -32.1777 C 41.6016 -29.541 43.3594 -28.2227 46.5332 -28.2227 Z M 46.5332 -15.7227 C 49.5117 -15.7227 51.8555 -17.627 51.8555 -20.5078 C 51.8555 -23.3887 49.5605 -25.293 46.5332 -25.293 C 43.5059 -25.293 41.1621 -23.3887 41.1621 -20.5078 C 41.1621 -17.627 43.5059 -15.7227 46.5332 -15.7227 Z"/>
  </g>
  <g id="Semibold-S" transform="matrix(1 0 0 1 1996.2 696)">
   <path d="M 47.0703 4.98047 C 69.0918 4.98047 87.3047 -13.1836 87.3047 -35.2539 C 87.3047 -57.2754 69.0918 -75.4883 47.0215 -75.4883 C 25 -75.4883 6.83594 -57.2754 6.83594 -35.2539 C 6.83594 -13.1836 25.0488 4.98047 47.0703 4.98047 Z M 47.0703 -4.58984 C 30.0781 -4.58984 16.4551 -18.2129 16.4551 -35.2539 C 16.4551 -52.2461 30.0293 -65.8691 47.0215 -65.8691 C 64.0625 -65.8691 77.6855 -52.2461 77.7344 -35.2539 C 77.7344 -18.2129 64.0625 -4.58984 47.0703 -4.58984 Z M 46.1426 -27.8809 C 48.584 -27.8809 50.1953 -29.1992 50.3906 -30.9082 C 50.3906 -31.0059 50.3906 -31.1523 50.4395 -31.25 C 50.6348 -33.0566 52.0996 -34.3262 54.3457 -35.791 C 58.1543 -38.1836 60.5957 -40.3809 60.5957 -44.873 C 60.5957 -51.4648 54.541 -55.3223 47.4121 -55.3223 C 40.7715 -55.3223 36.1328 -52.4902 34.7656 -48.9258 C 34.4727 -48.1934 34.3262 -47.5098 34.3262 -46.7285 C 34.3262 -44.6289 35.9375 -43.2129 38.1836 -43.2129 C 40.6738 -43.2129 41.3086 -44.4824 42.5781 -45.8008 C 43.9453 -47.3145 45.2637 -48.0469 46.9727 -48.0469 C 49.5117 -48.0469 51.123 -46.582 51.123 -44.3848 C 51.123 -42.2363 49.4629 -41.0645 46.3867 -38.916 C 43.75 -37.1094 41.6992 -35.1562 41.6992 -31.8848 L 41.6992 -31.6406 C 41.6992 -29.1504 43.3105 -27.8809 46.1426 -27.8809 Z M 46.0938 -15.6738 C 48.877 -15.6738 51.123 -17.5293 51.123 -20.2637 C 51.123 -22.998 48.9258 -24.8535 46.0938 -24.8535 C 43.3105 -24.8535 41.0645 -22.9492 41.0645 -20.2637 C 41.0645 -17.5781 43.3105 -15.6738 46.0938 -15.6738 Z"/>
  </g>
  <g id="Medium-S" transform="matrix(1 0 0 1 1699.83 696)">
   <path d="M 46.7285 4.63867 C 68.5547 4.63867 86.6211 -13.4277 86.6211 -35.2539 C 86.6211 -57.0312 68.5059 -75.1465 46.6797 -75.1465 C 24.8535 -75.1465 6.83594 -57.0312 6.83594 -35.2539 C 6.83594 -13.4277 24.9023 4.63867 46.7285 4.63867 Z M 46.7285 -4.00391 C 29.3945 -4.00391 15.5273 -17.9199 15.5273 -35.2539 C 15.5273 -52.5879 29.3457 -66.4551 46.6797 -66.4551 C 64.0137 -66.4551 77.8809 -52.5879 77.9297 -35.2539 C 77.9785 -17.9199 64.0625 -4.00391 46.7285 -4.00391 Z M 45.8496 -27.5879 C 48.1934 -27.5879 49.6582 -28.9551 49.7559 -30.6641 C 49.7559 -30.7617 49.7559 -30.9082 49.8047 -30.957 C 49.9023 -32.8613 51.3184 -34.1797 53.7109 -35.7422 C 57.4219 -38.1348 60.0586 -40.332 60.0586 -44.9707 C 60.0586 -51.6602 54.0527 -55.2734 47.1191 -55.2734 C 40.4297 -55.2734 35.8887 -52.3926 34.5703 -48.877 C 34.3262 -48.1934 34.1797 -47.5098 34.1797 -46.7773 C 34.1797 -44.7754 35.791 -43.5059 37.6465 -43.5059 C 40.1367 -43.5059 40.6738 -44.7754 42.041 -46.2402 C 43.4082 -47.8516 44.873 -48.6328 46.7285 -48.6328 C 49.5605 -48.6328 51.416 -46.9727 51.416 -44.5312 C 51.416 -42.1875 49.7559 -41.0156 46.582 -38.8672 C 43.9453 -37.0117 41.8457 -35.0586 41.8457 -31.4941 L 41.8457 -31.25 C 41.8457 -28.8086 43.2617 -27.5879 45.8496 -27.5879 Z M 45.752 -15.625 C 48.3887 -15.625 50.5371 -17.4805 50.5371 -20.0684 C 50.5371 -22.6562 48.3887 -24.5605 45.752 -24.5605 C 43.1152 -24.5605 40.9668 -22.6562 40.9668 -20.0684 C 40.9668 -17.5293 43.1641 -15.625 45.752 -15.625 Z"/>
  </g>
  <g id="Regular-S" transform="matrix(1 0 0 1 1403.58 696)">
   <path d="M 46.2402 4.15039 C 67.7734 4.15039 85.6934 -13.7207 85.6934 -35.2539 C 85.6934 -56.7871 67.7246 -74.6582 46.1914 -74.6582 C 24.707 -74.6582 6.83594 -56.7871 6.83594 -35.2539 C 6.83594 -13.7207 24.7559 4.15039 46.2402 4.15039 Z M 46.2402 -3.27148 C 28.5156 -3.27148 14.3555 -17.4805 14.3555 -35.2539 C 14.3555 -53.0273 28.4668 -67.2363 46.1914 -67.2363 C 63.9648 -67.2363 78.1738 -53.0273 78.2227 -35.2539 C 78.2715 -17.4805 64.0137 -3.27148 46.2402 -3.27148 Z M 45.459 -27.2461 C 47.6562 -27.2461 48.9746 -28.6133 48.9746 -30.3223 L 48.9746 -30.5664 C 48.9746 -32.666 50.2441 -33.9844 52.832 -35.6934 C 56.4453 -38.0371 59.375 -40.2832 59.375 -45.0684 C 59.375 -51.8555 53.3691 -55.2734 46.7285 -55.2734 C 39.9902 -55.2734 35.5469 -52.2461 34.375 -48.877 C 34.1309 -48.1934 33.9844 -47.5098 33.9844 -46.8262 C 33.9844 -44.9219 35.5469 -43.8477 36.9629 -43.8477 C 39.4531 -43.8477 39.7949 -45.166 41.2598 -46.7773 C 42.7246 -48.5352 44.3359 -49.3652 46.4355 -49.3652 C 49.6582 -49.3652 51.7578 -47.5586 51.7578 -44.7754 C 51.7578 -42.1875 50.0977 -41.0156 46.8262 -38.7695 C 44.1895 -36.9141 41.9434 -34.8633 41.9434 -30.957 L 41.9434 -30.7129 C 41.9434 -28.418 43.1641 -27.2461 45.459 -27.2461 Z M 45.3613 -15.5273 C 47.7051 -15.5273 49.8047 -17.4316 49.8047 -19.8242 C 49.8047 -22.2656 47.7539 -24.1211 45.3613 -24.1211 C 42.9199 -24.1211 40.8691 -22.2168 40.8691 -19.8242 C 40.8691 -17.4805 42.9688 -15.5273 45.3613 -15.5273 Z"/>
  </g>
  <g id="Light-S" transform="matrix(1 0 0 1 1107.6 696)">
   <path d="M 45.5078 3.4668 C 66.6992 3.4668 84.2285 -14.0625 84.2285 -35.2051 C 84.2285 -56.3965 66.6504 -73.9258 45.5078 -73.9258 C 24.3164 -73.9258 6.83594 -56.3965 6.83594 -35.2051 C 6.83594 -14.0625 24.3652 3.4668 45.5078 3.4668 Z M 45.5078 -2.24609 C 27.2461 -2.24609 12.5977 -16.9434 12.5977 -35.2051 C 12.5977 -53.5156 27.1973 -68.2129 45.5078 -68.2129 C 63.7695 -68.2129 78.4668 -53.5156 78.5156 -35.2051 C 78.5156 -16.9434 63.8184 -2.24609 45.5078 -2.24609 Z M 44.7754 -27.3438 C 46.4355 -27.3438 47.4609 -28.418 47.4609 -29.7852 L 47.4609 -30.4199 C 47.4609 -32.6172 48.6816 -33.9844 51.416 -35.8398 C 55.2246 -38.3301 57.6172 -40.5762 57.6172 -44.9219 C 57.6172 -50.9766 52.2461 -54.3945 45.8984 -54.3945 C 39.4531 -54.3945 35.2051 -51.2207 34.2773 -47.6074 C 34.082 -47.0215 33.9844 -46.4355 33.9844 -45.8008 C 33.9844 -44.2871 35.2051 -43.457 36.3281 -43.457 C 38.2324 -43.457 38.5742 -44.4824 39.5996 -45.752 C 40.7227 -48.1934 42.7246 -49.8047 45.6543 -49.8047 C 49.3652 -49.8047 51.7578 -47.7051 51.7578 -44.6777 C 51.7578 -42.0898 50.2441 -40.7227 46.7773 -38.3301 C 43.9453 -36.377 42.041 -34.3262 42.041 -30.7129 L 42.041 -30.0293 C 42.041 -28.2715 43.0176 -27.3438 44.7754 -27.3438 Z M 44.6777 -16.2109 C 46.7285 -16.2109 48.5352 -17.8711 48.5352 -19.9219 C 48.5352 -21.9727 46.7773 -23.6328 44.6777 -23.6328 C 42.5781 -23.6328 40.8691 -21.9727 40.8691 -19.9219 C 40.8691 -17.8711 42.627 -16.2109 44.6777 -16.2109 Z"/>
  </g>
  <g id="Thin-S" transform="matrix(1 0 0 1 811.867 696)">
   <path d="M 44.5801 2.53906 C 65.2832 2.53906 82.2754 -14.4531 82.2754 -35.2051 C 82.2754 -55.9082 65.2344 -72.9004 44.5312 -72.9004 C 23.8281 -72.9004 6.83594 -55.9082 6.83594 -35.2051 C 6.83594 -14.4531 23.877 2.53906 44.5801 2.53906 Z M 44.5801 -0.878906 C 25.5859 -0.878906 10.2539 -16.2109 10.2539 -35.2051 C 10.2539 -54.1504 25.5859 -69.4824 44.5312 -69.4824 C 63.5254 -69.4824 78.8574 -54.1504 78.8574 -35.2051 C 78.8574 -16.2109 63.5254 -0.878906 44.5801 -0.878906 Z M 43.8965 -27.4902 C 44.873 -27.4902 45.5078 -28.1738 45.5078 -29.1016 L 45.5078 -30.2246 C 45.5078 -32.6172 46.6309 -34.0332 49.6094 -36.0352 C 53.5645 -38.7207 55.3711 -40.9668 55.3711 -44.7754 C 55.3711 -49.8535 50.7812 -53.2715 44.7754 -53.2715 C 38.7207 -53.2715 34.8145 -49.8535 34.1797 -45.9473 C 34.082 -45.459 33.9844 -44.9707 33.9844 -44.4336 C 33.9844 -43.457 34.7168 -42.8711 35.5469 -42.8711 C 36.6699 -42.8711 37.0117 -43.5059 37.4512 -44.4336 C 38.0371 -47.7051 40.625 -50.293 44.6289 -50.293 C 49.0234 -50.293 51.8066 -47.9004 51.8066 -44.5801 C 51.8066 -41.9434 50.3906 -40.332 46.7773 -37.793 C 43.6523 -35.6445 42.1875 -33.6426 42.1875 -30.4199 L 42.1875 -29.1992 C 42.1875 -28.125 42.8711 -27.4902 43.8965 -27.4902 Z M 43.7988 -17.0898 C 45.459 -17.0898 46.7773 -18.4082 46.7773 -20.0195 C 46.7773 -21.6309 45.459 -22.9492 43.7988 -22.9492 C 42.1875 -22.9492 40.8203 -21.6309 40.8203 -20.0195 C 40.8203 -18.457 42.1875 -17.0898 43.7988 -17.0898 Z"/>
  </g>
  <g id="Ultralight-S" transform="matrix(1 0 0 1 515.644 696)">
   <path d="M 44.043 2.05078 C 64.502 2.05078 81.2988 -14.6973 81.2988 -35.1562 C 81.2988 -55.6152 64.502 -72.3633 44.043 -72.3633 C 23.584 -72.3633 6.83594 -55.6152 6.83594 -35.1562 C 6.83594 -14.6973 23.584 2.05078 44.043 2.05078 Z M 44.043 -0.146484 C 24.7559 -0.146484 9.08203 -15.8691 9.08203 -35.1562 C 9.08203 -54.4434 24.7559 -70.166 44.043 -70.166 C 63.3789 -70.166 79.0527 -54.4434 79.0527 -35.1562 C 79.0527 -15.8691 63.3789 -0.146484 44.043 -0.146484 Z M 43.4082 -27.5879 C 44.0918 -27.5879 44.5312 -28.0762 44.5312 -28.7598 L 44.5312 -30.127 C 44.5312 -32.5684 45.5566 -34.0332 48.6328 -36.1328 C 52.6855 -38.916 54.1992 -41.1621 54.1992 -44.6289 C 54.1992 -49.2676 50.0488 -52.6855 44.1895 -52.6855 C 38.3301 -52.6855 34.5703 -49.1211 34.082 -45.1172 C 34.0332 -44.6777 33.9844 -44.2383 33.9844 -43.7012 C 33.9844 -43.0176 34.4727 -42.5781 35.1074 -42.5781 C 35.8398 -42.5781 36.2305 -43.0176 36.3281 -43.7012 C 36.6699 -47.4609 39.502 -50.5859 44.0918 -50.5859 C 48.8281 -50.5859 51.8066 -47.998 51.8066 -44.4824 C 51.8066 -41.8457 50.5371 -40.1367 46.7285 -37.5 C 43.5059 -35.2539 42.2852 -33.3008 42.2852 -30.2734 L 42.2852 -28.7598 C 42.2852 -28.0273 42.7246 -27.5879 43.4082 -27.5879 Z M 43.3594 -17.5293 C 44.7754 -17.5293 45.8984 -18.75 45.8984 -20.0684 C 45.8984 -21.4355 44.7754 -22.6074 43.3594 -22.6074 C 41.9434 -22.6074 40.8203 -21.4355 40.8203 -20.0684 C 40.8203 -18.75 41.9434 -17.5293 43.3594 -17.5293 Z"/>
  </g>
 </g>
</svg>
